HIERARCHY
ROOT joint_0
{
	OFFSET 0.000000 0.000000 0.000000
	CHANNELS 6 Xposition Yposition Zposition Zrotation Yrotation Xrotation 
	JOINT joint_1
	{
		OFFSET 3.886261 -0.864090 119.041016
		CHANNELS 3 Zrotation Yrotation Xrotation
		JOINT joint_2
		{
			OFFSET -8.814819 -1.400200 108.366943
			CHANNELS 3 Zrotation Yrotation Xrotation
			JOINT joint_3
			{
				OFFSET -10.127777 -1.846550 108.123047
				CHANNELS 3 Zrotation Yrotation Xrotation
				JOINT joint_4
				{
					OFFSET -0.104309 -2.852760 150.227051
					CHANNELS 3 Zrotation Yrotation Xrotation
					JOINT joint_5
					{
						OFFSET 20.206146 2.292160 92.163940
						CHANNELS 3 Zrotation Yrotation Xrotation
						End Site
						{
							OFFSET 0.000000 0.000000 0.000000
						}
					}
				}
				JOINT joint_6
				{
					OFFSET 0.345886 -34.260384 83.589966
					CHANNELS 3 Zrotation Yrotation Xrotation
					JOINT joint_7
					{
						OFFSET -3.824402 -146.174217 -19.015991
						CHANNELS 3 Zrotation Yrotation Xrotation
						JOINT joint_8
						{
							OFFSET 134.098145 -24.802032 -261.230957
							CHANNELS 3 Zrotation Yrotation Xrotation
							JOINT joint_9
							{
								OFFSET 123.899048 209.340523 59.187012
								CHANNELS 3 Zrotation Yrotation Xrotation
								End Site
								{
									OFFSET 0.000000 0.000000 0.000000
								}
							}
						}
					}
				}
				JOINT joint_10
				{
					OFFSET -0.423798 31.098438 84.831055
					CHANNELS 3 Zrotation Yrotation Xrotation
					JOINT joint_11
					{
						OFFSET 3.093201 146.891491 -12.504028
						CHANNELS 3 Zrotation Yrotation Xrotation
						JOINT joint_12
						{
							OFFSET 195.631927 -20.967743 -219.380981
							CHANNELS 3 Zrotation Yrotation Xrotation
							JOINT joint_13
							{
								OFFSET -8.651001 -247.511261 -36.616089
								CHANNELS 3 Zrotation Yrotation Xrotation
								End Site
								{
									OFFSET 0.000000 0.000000 0.000000
								}
							}
						}
					}
				}
			}
		}
	}
	JOINT joint_14
	{
		OFFSET 6.948090 -87.642914 -106.942017
		CHANNELS 3 Zrotation Yrotation Xrotation
		JOINT joint_15
		{
			OFFSET -34.394226 4.543823 -458.972961
			CHANNELS 3 Zrotation Yrotation Xrotation
			JOINT joint_16
			{
				OFFSET -17.051544 6.964645 -485.636009
				CHANNELS 3 Zrotation Yrotation Xrotation
				JOINT joint_17
				{
					OFFSET 190.520630 40.462875 -83.888000
					CHANNELS 3 Zrotation Yrotation Xrotation
					End Site
					{
						OFFSET 0.000000 0.000000 0.000000
					}
				}
			}
		}
	}
	JOINT joint_18
	{
		OFFSET 3.929901 87.535423 -107.188965
		CHANNELS 3 Zrotation Yrotation Xrotation
		JOINT joint_19
		{
			OFFSET -34.463440 -10.383845 -458.873047
			CHANNELS 3 Zrotation Yrotation Xrotation
			JOINT joint_20
			{
				OFFSET 14.641205 -11.071349 -485.637978
				CHANNELS 3 Zrotation Yrotation Xrotation
				JOINT joint_21
				{
					OFFSET 194.569275 -4.161928 -84.249998
					CHANNELS 3 Zrotation Yrotation Xrotation
					End Site
					{
						OFFSET 0.000000 0.000000 0.000000
					}
				}
			}
		}
	}
}
MOTION
Frames: 11
Frame Time: 0.016667
16.302546 -104.765175 1170.462036 -4.285019 9.161689 1.265157 -3.218546 -5.981250 6.890280 -0.311234 0.794047 -1.271285 0.327194 -1.416341 1.015479 -1.495814 2.160714 6.491898 0.000000 0.000000 0.000000 4.381567 9.025430 -0.595481 -0.941716 9.660184 -11.044743 -15.446903 17.512524 -35.293120 0.000000 0.000000 0.000000 -5.012168 18.095199 -2.857128 28.140474 17.370973 10.808070 16.635849 -1.220201 -5.719219 0.000000 0.000000 0.000000 -1.158201 -47.549142 -9.753701 2.800650 45.382432 2.687805 1.040751 2.470098 -0.004014 0.000000 0.000000 0.000000 -2.057120 -5.434051 1.308135 -1.284801 25.832150 -2.553703 -0.818458 -1.548710 -0.338924 0.000000 0.000000 0.000000 
28.877216 -110.245468 1168.360962 -2.971401 9.248056 1.540944 -2.934884 -5.778707 6.767611 -0.445952 0.767978 -1.210266 0.118632 -1.378438 1.016360 -1.530839 2.403975 6.517215 0.000000 0.000000 0.000000 4.305237 8.961429 -0.814386 -0.551057 9.463832 -10.972351 -15.071274 17.484653 -35.347043 0.000000 0.000000 0.000000 -5.372255 18.036390 -2.552523 28.079409 17.093750 11.298669 16.109399 -0.984611 -5.822962 0.000000 0.000000 0.000000 -0.246881 -46.183511 -10.698612 3.269895 38.739431 2.643926 3.205833 6.920927 -0.159757 0.000000 0.000000 0.000000 -2.397082 -5.864527 1.705430 -1.648347 27.370713 -2.904582 -1.255083 -1.287576 -0.500809 0.000000 0.000000 0.000000 
41.476227 -115.824768 1164.555054 -1.505308 9.221071 1.682183 -2.657041 -5.448576 6.891931 -0.528212 0.789505 -1.198436 -0.003721 -1.300755 1.002714 -1.537371 2.415241 6.413444 0.000000 0.000000 0.000000 4.195206 8.939584 -1.147054 -0.168746 9.311441 -11.021434 -14.395805 17.340907 -35.064111 0.000000 0.000000 0.000000 -5.891829 17.852585 -2.236128 27.862002 16.683246 12.061806 15.167976 -0.623454 -5.946205 0.000000 0.000000 0.000000 1.219106 -44.313955 -12.041828 4.532441 32.337265 3.445940 5.875157 11.376702 -0.061675 0.000000 0.000000 0.000000 -2.939928 -6.510483 2.437867 -2.147721 29.590292 -3.507064 -1.844972 -1.454792 -0.728041 0.000000 0.000000 0.000000 
53.883659 -121.895325 1159.178955 0.379712 8.985130 1.880718 -2.449983 -4.915527 6.985131 -0.695380 0.729438 -1.176992 -0.214991 -1.197028 1.025247 -1.536485 2.440165 6.274307 0.000000 0.000000 0.000000 4.112338 8.987360 -1.632548 0.069321 9.262884 -10.922045 -13.757060 17.144157 -34.530584 0.000000 0.000000 0.000000 -6.324151 17.604065 -1.940218 27.527970 16.201014 12.773784 14.168009 -0.270556 -6.092597 0.000000 0.000000 0.000000 2.628632 -41.914385 -13.454880 5.782144 26.711316 3.949854 7.783749 14.328564 0.114624 0.000000 0.000000 0.000000 -3.841610 -7.197529 3.442845 -2.968913 32.207722 -4.483329 -2.825508 -1.850833 -1.106530 0.000000 0.000000 0.000000 
66.419998 -128.781586 1151.836060 2.761120 8.528888 2.203556 -2.339955 -4.278934 6.991576 -0.996596 0.575889 -1.171321 -0.561451 -1.078955 1.112059 -1.551396 2.656508 6.180019 0.000000 0.000000 0.000000 4.059888 9.191535 -2.378025 0.037617 9.423218 -10.369093 -13.388364 16.911986 -33.702631 0.000000 0.000000 0.000000 -6.479147 17.416421 -1.597709 27.053940 15.737613 13.132160 13.335311 -0.014818 -6.326970 0.000000 0.000000 0.000000 3.382859 -39.084723 -14.583923 6.009699 22.697279 3.653088 7.992492 14.529938 0.194701 0.000000 0.000000 0.000000 -5.215781 -7.842608 4.793274 -4.230006 35.015177 -6.042932 -4.405654 -2.407896 -1.713484 0.000000 0.000000 0.000000 
79.169983 -136.345413 1142.475952 5.353052 7.964220 2.443918 -2.308586 -3.690450 7.224597 -1.310298 0.448043 -1.282107 -0.878954 -0.951771 1.230156 -1.575766 2.973022 6.100173 0.000000 0.000000 0.000000 4.007622 9.545820 -3.383476 -0.188815 9.773041 -9.425168 -13.169955 16.628400 -32.579952 0.000000 0.000000 0.000000 -6.435452 17.254342 -1.182557 26.425348 15.276785 13.259361 12.524750 0.189538 -6.646757 0.000000 0.000000 0.000000 3.679327 -36.013329 -15.255278 5.357864 20.138423 3.059643 7.054516 12.475349 0.260549 0.000000 0.000000 0.000000 -6.966836 -8.549196 6.628935 -5.814273 38.042615 -8.179938 -6.542461 -3.069279 -2.535231 0.000000 0.000000 0.000000 
90.076126 -144.209824 1133.222046 7.868824 7.402271 2.524580 -2.409775 -3.056704 7.622017 -1.561278 0.334516 -1.412904 -1.093894 -0.811141 1.360059 -1.597657 3.289426 6.013002 0.000000 0.000000 0.000000 4.103880 9.757108 -4.328846 -0.432421 10.046074 -8.640942 -12.991039 16.405772 -31.604543 0.000000 0.000000 0.000000 -6.284589 16.736077 -1.005050 25.810080 14.641971 13.465808 11.681662 0.317387 -6.815077 0.000000 0.000000 0.000000 3.502094 -33.742737 -15.218176 4.320048 19.332076 2.189363 5.807456 9.669745 0.339495 0.000000 0.000000 0.000000 -8.903477 -9.505451 8.731941 -7.513588 41.321169 -10.566312 -9.033351 -3.425967 -3.497237 0.000000 0.000000 0.000000 
97.369400 -152.206116 1125.387939 10.184658 6.941113 2.295754 -2.715685 -2.342932 8.361185 -1.693486 0.245424 -1.552681 -1.135375 -0.649394 1.513916 -1.598831 3.546990 5.857308 0.000000 0.000000 0.000000 4.502346 9.564986 -5.129183 -0.595655 10.032225 -8.484715 -12.730287 16.307229 -31.033024 0.000000 0.000000 0.000000 -6.018995 15.473920 -1.393720 25.191742 13.632647 13.940193 10.710642 0.339541 -6.556091 0.000000 0.000000 0.000000 2.767429 -33.213092 -14.232611 3.136615 20.984029 0.892227 4.699207 6.808536 0.478994 0.000000 0.000000 0.000000 -11.069657 -10.860446 11.167502 -9.281910 44.973229 -13.115149 -11.945459 -3.117899 -4.627317 0.000000 0.000000 0.000000 
101.831688 -160.478271 1118.155029 12.504365 6.498196 1.771136 -3.276266 -1.469832 9.509615 -1.744820 0.127377 -1.747557 -1.025883 -0.480834 1.691986 -1.583778 3.772149 5.641988 0.000000 0.000000 0.000000 5.165794 9.090672 -5.924878 -0.768912 9.871253 -8.808301 -12.382327 16.258520 -30.630415 0.000000 0.000000 0.000000 -5.576312 13.655041 -2.267226 24.443748 12.308923 14.515238 9.640142 0.274555 -5.934015 0.000000 0.000000 0.000000 1.393104 -33.928673 -12.484945 1.564070 24.807227 -0.740825 3.456701 3.517503 0.659617 0.000000 0.000000 0.000000 -13.598275 -12.430630 14.046692 -11.215565 48.894320 -15.909569 -15.511922 -2.102512 -6.041104 0.000000 0.000000 0.000000 
105.277740 -168.670486 1111.991943 14.363039 6.143235 1.428513 -3.823281 -0.463969 10.180272 -1.666892 -0.044979 -1.836316 -0.797962 -0.314864 1.764106 -1.584784 3.901636 5.537735 0.000000 0.000000 0.000000 5.816017 8.643847 -6.317603 -0.969612 9.739014 -9.185148 -12.147637 16.228034 -30.353041 0.000000 0.000000 0.000000 -5.289368 12.047461 -3.058755 23.939104 11.085700 14.952994 8.870031 0.188354 -5.414462 0.000000 0.000000 0.000000 0.165247 -35.009434 -11.160902 0.149349 28.736313 -1.966931 2.422873 0.795777 0.819708 0.000000 0.000000 0.000000 -15.725535 -14.140943 16.549989 -12.794090 52.720526 -18.407679 -18.729781 -0.828576 -7.412842 0.000000 0.000000 0.000000 
108.631882 -177.001923 1107.267944 15.119428 6.060489 1.644450 -3.956754 0.474930 9.568255 -1.350176 -0.154130 -1.694111 -0.455117 -0.123339 1.593908 -1.616753 3.828785 5.657522 0.000000 0.000000 0.000000 6.255859 8.402577 -5.893758 -1.155541 9.674131 -9.191589 -12.267326 16.254696 -30.292517 0.000000 0.000000 0.000000 -5.514689 11.124120 -3.202886 24.097044 10.242537 15.150006 8.690305 0.115404 -5.413178 0.000000 0.000000 0.000000 -0.085644 -36.333800 -11.132416 -0.562124 31.860421 -2.083852 2.000914 -0.971687 1.030182 0.000000 0.000000 0.000000 -16.822233 -16.252945 18.176943 -13.613505 56.527946 -20.393692 -20.772330 0.237710 -8.453603 0.000000 0.000000 0.000000 
